<svg id="Layer_1" data-name="Layer 1" xmlns="http://www.w3.org/2000/svg" xmlns:xlink="http://www.w3.org/1999/xlink" viewBox="0 0 427.55 130.28"><defs><style>.cls-1{fill:none;}.cls-2{clip-path:url(#clip-path);}.cls-3{fill:#fff;}.cls-4{fill:#001738;}.cls-5{fill:#a7a9ac;}</style><clipPath id="clip-path" transform="translate(-83.86 -182)"><rect class="cls-1" x="83.86" y="182" width="427.55" height="130.28"/></clipPath></defs><g id="zenon_logo_blue"><g class="cls-2"><g class="cls-2"><path class="cls-3" d="M83.87,230.12c11.29,0,25.31-.61,34.24,2.9a36.27,36.27,0,0,1,9.24,5.43c8.11,6.48,12.22,19.86,27,10.51l.09-.08a.27.27,0,0,0,.06-.22c0-.14-.13-.18-.37-.22l-.11,0c-7.41-1.55-14.08-12.15-21.55-15.39-12.06-5.23-32.14-4.7-48.55-4.71h0v1.81Z" transform="translate(-83.86 -182)"/><path class="cls-3" d="M178.23,228.31c-3.71,4.69-7,9.5-11,13.64-6.13,6.38-12.91,14.22-25,13-.06,0-.11,0-.13,0a.17.17,0,0,0,.05.14l0,0c.94,1.09,2,2.34,3,3.35a20.74,20.74,0,0,0,10.5,6c14.17,3.3,25.73-18.94,31-26.8C199.24,218.67,209,199.92,240,199.88v-2.35c-31.65-.53-47.72,13-61.79,30.78" transform="translate(-83.86 -182)"/><path class="cls-4" d="M270.94,238.64h34.2a25.42,25.42,0,0,1,.32,4c0,5.92-1,7.37-11.75,16.29-6.48,5.43-8.59,7.37-10.21,9.23h21.64v10.05h-36.3c-.16-1.78-.24-2.67-.24-3.81,0-6.16,1.7-8.91,10.12-16l3.73-3.16c2.92-2.51,3.4-3,5.43-4.78l1.7-1.7H270.94Z" transform="translate(-83.86 -182)"/><path class="cls-4" d="M321.91,262.06c.41,4.94,4.21,7.61,10.78,7.61A23.75,23.75,0,0,0,346,265.86v9.65a31.69,31.69,0,0,1-15.07,3.72c-13.28,0-21.06-7.61-21.06-20.58,0-12.72,7.94-21,20-21,11.59,0,18.23,7.37,18.23,20.33,0,.65,0,1.79-.08,3.16l-.08.9Zm14.75-8.67c-.41-4.54-2.76-7-6.81-7-4.21,0-7.13,2.67-7.78,7Z" transform="translate(-83.86 -182)"/><path class="cls-4" d="M355.37,240.58A75,75,0,0,1,375,237.75c6.4,0,11,1.46,13.78,4.29,2.59,2.68,3.4,5.6,3.4,11.83v24.47H379.68v-24c0-4.78-1.62-6.56-6.08-6.56a18.74,18.74,0,0,0-5.75.89v29.65H355.37Z" transform="translate(-83.86 -182)"/><path class="cls-4" d="M419.38,237.59c12.48,0,20.1,7.86,20.1,20.58,0,13-7.94,21.23-20.58,21.23-12.48,0-20.18-7.86-20.18-20.5,0-13.13,7.94-21.31,20.66-21.31m-.24,31.76c4.78,0,7.62-4,7.62-10.86s-2.76-10.86-7.54-10.86c-4.94,0-7.78,4-7.78,10.86s2.84,10.86,7.7,10.86" transform="translate(-83.86 -182)"/><path class="cls-4" d="M446.36,240.58A75,75,0,0,1,466,237.75c6.4,0,11,1.46,13.78,4.29,2.59,2.68,3.4,5.6,3.4,11.83v24.47H470.67v-24c0-4.78-1.62-6.56-6.07-6.56a18.76,18.76,0,0,0-5.76.89v29.65H446.36Z" transform="translate(-83.86 -182)"/><path class="cls-5" d="M367.19,301.58a9.42,9.42,0,0,1-.3,2.48,6,6,0,0,1-.83,1.87,3.77,3.77,0,0,1-1.3,1.19,3.46,3.46,0,0,1-1.71.41,5,5,0,0,1-1.38-.19,12.59,12.59,0,0,1-1.24-.43,9,9,0,0,1-1.22-.63l-.35,1h-1.72V291.88h-1.76v-1l4.21-.57q0,6.66.37,6.48c.25-.12.56-.25.92-.39a12.58,12.58,0,0,1,1.22-.39,4.88,4.88,0,0,1,1.28-.18,3.22,3.22,0,0,1,2.81,1.46,7.63,7.63,0,0,1,1,4.33m-2.6.15a7.13,7.13,0,0,0-.55-3.23,1.8,1.8,0,0,0-1.66-1,4.57,4.57,0,0,0-1.26.2c-.45.14-.8.26-1.08.38l-.45.19v6.89l.36.17a6.49,6.49,0,0,0,.93.35,4.47,4.47,0,0,0,1.26.19,2,2,0,0,0,1.84-1.07,6.21,6.21,0,0,0,.61-3" transform="translate(-83.86 -182)"/><path class="cls-5" d="M379.35,297.39l-4.44,11.73a10.77,10.77,0,0,1-.72,1.54,3.36,3.36,0,0,1-.83,1,2.82,2.82,0,0,1-1.06.51,6.12,6.12,0,0,1-1.36.14A7.29,7.29,0,0,1,369,312v-2.74h1.15c.14,1.17.27,1.77.37,1.79a2.26,2.26,0,0,0,.42,0,2.55,2.55,0,0,0,.59-.07,1.73,1.73,0,0,0,.64-.29,2.51,2.51,0,0,0,.67-.7,5.7,5.7,0,0,0,.64-1.33l.19-.52-4.21-10.75-1.75-.29v-.92h5.87v.92l-1.62.29,3,7.72,2.83-7.72-1.62-.29v-.92h5v.92Z" transform="translate(-83.86 -182)"/><path class="cls-5" d="M397.54,307.3a10.83,10.83,0,0,1-2.53.29,5.68,5.68,0,0,1-4.74-2.12,9.77,9.77,0,0,1-1.67-6.13q0-4.11,1.77-6.21a6.39,6.39,0,0,1,5.14-2.08,11,11,0,0,1,2.35.26,18.14,18.14,0,0,1,2.29.64v2.94h-1.21c-.21-1.29-.55-2-1-2.09a8.94,8.94,0,0,0-1.91-.16,4.05,4.05,0,0,0-3.45,1.58,8,8,0,0,0-1.19,4.88,9.6,9.6,0,0,0,1.11,5.22A3.68,3.68,0,0,0,395.7,306a9.1,9.1,0,0,0,1.52-.12,6.62,6.62,0,0,0,1-.23l.38-.13.31-2h1.21v2.95a19.48,19.48,0,0,1-2.61.84" transform="translate(-83.86 -182)"/><path class="cls-5" d="M415.27,299.37a9.56,9.56,0,0,1-1.7,6.12q-1.68,2.1-5.24,2.1a6.26,6.26,0,0,1-5.23-2.16,9.78,9.78,0,0,1-1.7-6.16,9.56,9.56,0,0,1,1.7-6.12c1.14-1.41,2.89-2.1,5.26-2.1a6.22,6.22,0,0,1,5.21,2.15,9.81,9.81,0,0,1,1.7,6.17m-2.77,0a10,10,0,0,0-1-5.11,3.43,3.43,0,0,0-3.12-1.66,3.51,3.51,0,0,0-3.16,1.65,9.6,9.6,0,0,0-1.06,5.07,9.9,9.9,0,0,0,1,5.12,3.8,3.8,0,0,0,6.27,0,9.65,9.65,0,0,0,1.05-5.08" transform="translate(-83.86 -182)"/><path class="cls-5" d="M429.71,295.86a5.16,5.16,0,0,1-.36,2,4,4,0,0,1-1,1.49,4.19,4.19,0,0,1-2.18,1.06,17.88,17.88,0,0,1-2.89.21h-1.71v5.33l2.14.29v1.07h-6.6v-1.07l1.85-.29V292.7l-1.85-.29v-1.07h7.08a12.72,12.72,0,0,1,2.41.18,3.63,3.63,0,0,1,1.52.66,4.21,4.21,0,0,1,1.62,3.68m-2.75.05a3.93,3.93,0,0,0-.28-1.57,2.8,2.8,0,0,0-.76-1,2.37,2.37,0,0,0-1.24-.46,13.3,13.3,0,0,0-1.55-.08h-1.59v6.45h1c.73,0,1.37,0,1.93-.06a2.57,2.57,0,0,0,2.22-1.6,4.27,4.27,0,0,0,.27-1.63" transform="translate(-83.86 -182)"/><path class="cls-5" d="M438.36,307.3v-1.07l1.83-.29-1.23-3.5h-6.23l-1.25,3.5,1.86.29v1.07h-5.52v-1.07l1.86-.29,5.27-14.6h2.6l5.27,14.6,1.87.29v1.07Zm-2.52-13.68-2.61,7.43h5.2Z" transform="translate(-83.86 -182)"/><rect class="cls-5" x="360.69" y="117.58" width="7.32" height="1.74"/><path class="cls-5" d="M467.93,299.3a10.48,10.48,0,0,1-.78,4.19,6.08,6.08,0,0,1-2.24,2.76,5.42,5.42,0,0,1-1,.54,6.24,6.24,0,0,1-1.1.31,12.37,12.37,0,0,1-1.43.15c-.55,0-1.21.05-2,.05h-5.71v-1.07l1.85-.29V292.7l-1.85-.29v-1.07H460c.72,0,1.35,0,1.9.07a7.76,7.76,0,0,1,1.48.24,5.28,5.28,0,0,1,1.16.43,5.42,5.42,0,0,1,1,.64,6.37,6.37,0,0,1,1.84,2.68,11.17,11.17,0,0,1,.61,3.9m-2.73,0a10.5,10.5,0,0,0-.42-3.19,5,5,0,0,0-1.21-2.1,3.57,3.57,0,0,0-.73-.59,3.7,3.7,0,0,0-.9-.39,7.21,7.21,0,0,0-1.22-.2c-.46,0-1-.06-1.7-.06h-.87v13.06h.78c.66,0,1.23,0,1.7-.06a6.53,6.53,0,0,0,1.23-.21,3,3,0,0,0,.91-.39,4.74,4.74,0,0,0,.75-.64,4.87,4.87,0,0,0,1.25-2.11,10.41,10.41,0,0,0,.43-3.12" transform="translate(-83.86 -182)"/><path class="cls-5" d="M478.3,307.3v-1.07l1.82-.29-1.23-3.5h-6.22l-1.26,3.5,1.86.29v1.07h-5.52v-1.07l1.87-.29,5.27-14.6h2.59l5.27,14.6,1.88.29v1.07Zm-2.53-13.68-2.6,7.43h5.2Z" transform="translate(-83.86 -182)"/><polygon class="cls-5" points="411.02 112.7 410.74 110.79 407.01 110.79 407.01 123.94 408.88 124.23 408.88 125.3 402.56 125.3 402.56 124.23 404.42 123.94 404.42 110.79 400.73 110.79 400.44 112.7 399.28 112.7 399.28 109.34 412.19 109.34 412.19 112.7 411.02 112.7"/><path class="cls-5" d="M505.08,307.3v-1.07l1.83-.29-1.23-3.5h-6.23l-1.26,3.5,1.87.29v1.07h-5.52v-1.07l1.86-.29,5.27-14.6h2.6l5.27,14.6,1.87.29v1.07Zm-2.52-13.68L500,301.05h5.2Z" transform="translate(-83.86 -182)"/><path class="cls-5" d="M186.57,237.73c-5.24,7.86-16.8,30.1-31,26.8a20.74,20.74,0,0,1-10.5-6c-1-1-2-2.26-3-3.35l0,0c-.05,0-.07-.1-.05-.14s.07,0,.13,0c12.13,1.19,18.91-6.65,25-13,4-4.14,7.32-8.95,11-13.64C192.3,210.53,208.37,197,240,197.53V186.48l0-2.32a2.14,2.14,0,0,0-2.15-2.13l-2.37,0H88.41L86,182a2.14,2.14,0,0,0-2.15,2.13l0,2.32v41.83h0c16.41,0,36.49-.51,48.55,4.71,7.47,3.24,14.14,13.84,21.55,15.39l.11,0c.24,0,.34.08.37.22a.27.27,0,0,1-.06.22l-.1.08c-14.72,9.35-18.83-4-26.94-10.51a36.44,36.44,0,0,0-9.24-5.43c-8.93-3.51-23-2.91-34.24-2.9h0v43.66l0,2.36A2.13,2.13,0,0,0,86,278.26h151.8a2.13,2.13,0,0,0,2.15-2.12l0-2.36v-73.9c-31,0-40.78,18.79-53.45,37.85M240,199.88Z" transform="translate(-83.86 -182)"/></g></g></g></svg>